<svg fill="none" height="148" viewBox="0 0 148 148" width="148" xmlns="http://www.w3.org/2000/svg"><rect fill="#ffbf00" height="148" rx="20" width="148"/><path d="m18.8462 77.0674c-.1127-3.3648.2022-6.4116.9446-9.1404.7413-2.7621 1.7459-5.1336 3.0136-7.1144 1.2999-2.0153 2.6988-3.5672 4.1965-4.6557 1.5299-1.1231 3.0111-1.7108 4.4435-1.7629.7661-.0279 1.3747.2168 1.8256.734.4842.5161.7386 1.1406.7631 1.8735.0156.4664-.2175.9752-.6993 1.5264-.4485.5501-1.2429 1.2294-2.3831 2.0381-1.692 1.2624-3.0465 2.646-4.0634 4.1506-.9835 1.5035-1.6767 3.2132-2.0795 5.1291-.3694 1.9147-.5112 4.1546-.4253 6.7199.087 2.5985.3989 4.9387.9355 7.0206.5688 2.0473 1.3969 3.8683 2.4842 5.4631 1.1206 1.5936 2.5177 2.977 4.1912 4.1502 1.0928.7608 1.8985 1.4152 2.4171 1.9634.5197.5814.7885 1.1387.8064 1.6717.0245.733-.203 1.4083-.6826 2.0262s-1.3023.948-2.4682.9905c-1.2658.0461-2.63-.3545-4.0925-1.2019-1.4625-.8473-2.8751-2.1968-4.2378-4.0484-1.3283-1.8195-2.4413-4.1806-3.339-7.0832-.8976-2.9025-1.4145-6.386-1.5506-10.4504zm24.5476-14.4028c1.066-.0389 1.7967.3682 2.1921 1.221.4288.8516.6716 2.127.7285 3.826.0134.3998-.0054.8341-.0564 1.3029-.0188.4343-.0721.8365-.1597 1.2066l-.1334-.9958c.7269-2.1945 1.9031-3.9218 3.5285-5.1818 1.6243-1.2933 3.3691-1.9739 5.2346-2.0418 2.0653-.0753 3.8003.4453 5.2051 1.5616 1.4381 1.115 2.5255 2.7098 3.262 4.7844.7698 2.0733 1.2027 4.5425 1.2986 7.4076.0591 1.7657.0344 3.5177-.0741 5.2562-.0764 1.7039-.2238 3.2769-.4423 4.7192-.1863 1.4077-.4144 2.5667-.684 3.4771-.3618 1.1473-.8497 2.0156-1.4637 2.605-.615.5561-1.3556.8499-2.2217.8815-.8661.0315-1.5429-.2607-2.0305-.8767-.4875-.616-.7491-1.4571-.7848-2.5231-.038-1.1327-.0004-2.5017.1126-4.1068.1119-1.6385.2065-3.293.284-4.9636.1097-1.7051.1416-3.2406.0959-4.6065-.1562-4.6641-1.7666-6.9403-4.8312-6.8287-1.6323.0594-2.9735.8421-4.0237 2.348-1.0513 1.4725-1.7155 3.5481-1.9927 6.2266-.0698.9031-.0824 2.021-.0378 3.3536.0446 1.3325.0893 2.6651.1339 3.9977.0768 1.2981.0803 2.3987.0105 3.3018-.0663 2.0037-.4014 3.4502-1.0053 4.3394-.5706.8881-1.3889 1.3515-2.4549 1.3903-1.2325.0449-2.1842-.4875-2.855-1.5972-.672-1.1429-1.0537-3.0803-1.1452-5.8121-.0468-1.3992-.066-2.9662-.0573-4.701.0086-1.7348.0338-3.4702.0758-5.2062.0741-1.7705.1704-3.3751.289-4.8137.2428-2.7106.6544-4.8603 1.2349-6.4492.5793-1.6221 1.5019-2.4562 2.7677-2.5023zm30.8727-8.3791c1.3325-.0485 2.2941.2834 2.8849.9957.6242.7111.9524 1.5497.9848 2.5158.0402 1.1993-.295 2.1455-1.0056 2.8385-.6783.6584-1.667 1.0113-2.9662 1.0586-1.2658.0461-2.2269-.2691-2.8832-.9457-.6575-.7099-1.0024-1.5479-1.0348-2.514-.0423-1.2659.3089-2.2294 1.0539-2.8902.745-.6609 1.7337-1.0138 2.9662-1.0587zm.673 11.1329c1.0659-.0389 1.9322.9303 2.5987 2.9073.6999 1.9758 1.1229 5.1459 1.269 9.5101.1796 5.3636-.074 9.2421-.761 11.6353-.6869 2.3933-1.8132 3.6184-3.3789 3.6754-1.1992.0437-2.1109-.7904-2.7352-2.5021-.6254-1.745-1.0112-4.7997-1.1574-9.1639-.1796-5.3637.1202-9.3605.8992-11.9906.8113-2.6646 1.8998-4.0218 3.2656-4.0715zm24.4659 26.7272c-3.6975.1346-6.664-.3077-8.8993-1.327-2.2354-1.0193-3.8707-2.5442-4.9059-4.5745s-1.6007-4.478-1.6967-7.3431c-.1216-3.6313.4415-6.7372 1.6891-9.3176 1.2799-2.615 3.0795-4.6485 5.3988-6.1005 2.3527-1.4532 5.0447-2.235 8.076-2.3454 3.5646-.1298 6.2076.6078 7.9286 2.2129 1.72 1.5718 2.625 3.6902 2.714 6.3554.072 2.1321-.433 4.0017-1.513 5.6088-1.048 1.5725-2.541 2.8109-4.478 3.7154-1.938.9044-4.1888 1.4033-6.7538 1.4967-1.4324.0522-2.8209-.0807-4.1657-.3986-1.3447-.318-2.5606-.774-3.6478-1.3682l1.1256-2.2424c-.0732.8032-.0964 1.6046-.0696 2.4041.0781 2.332.8673 3.9877 2.3676 4.9671 1.4991.9461 3.5978 1.37 6.296 1.2717 2.0987-.0764 3.7747-.3209 5.0287-.7335 1.253-.4125 2.307-.8011 3.162-1.1658.854-.398 1.697-.6122 2.53-.6425.467-.017.887.1011 1.263.3543.407.2186.735.5569.984 1.0148.282.4567.435 1.0182.457 1.6845.033.9994-.434 1.9838-1.402 2.953-.969.9359-2.426 1.7394-4.372 2.4107-1.913.6367-4.285 1.0066-7.1166 1.1097zm-3.4453-16.2353c2.3651-.0861 4.2469-.655 5.6459-1.7066s2.074-2.3103 2.025-3.7762c-.039-1.166-.471-2.1009-1.295-2.8047-.792-.7384-2.02-1.0772-3.6858-1.0165-1.5656.057-2.9713.4084-4.217 1.0541-1.2136.6113-2.1545 1.396-2.8228 2.3543s-.984 1.9871-.9472 3.0865c.0323.9661.5071 1.6993 1.4244 2.1996.9494.4658 2.2403.6689 3.8725.6095zm34.1519-1.8441c.111 3.3315-.204 6.3783-.945 9.1404s-1.762 5.1509-3.062 7.1662c-1.268 1.9807-2.667 3.516-4.198 4.6058-1.497 1.1218-2.961 1.7089-4.394 1.761-.732.0267-1.341-.218-1.825-.734-.484-.5161-.739-1.1406-.763-1.8735-.016-.4664.217-.9752.699-1.5264.482-.5513 1.276-1.2306 2.383-2.0381 1.725-1.2636 3.08-2.6472 4.063-4.1506.984-1.5035 1.66-3.2125 2.03-5.1273.402-1.9492.56-4.1898.475-6.7217-.087-2.5985-.415-4.9214-.984-6.9688-.536-2.0818-1.348-3.9201-2.435-5.5149-1.088-1.5949-2.485-2.9783-4.192-4.1502-1.059-.762-1.865-1.4164-2.417-1.9634-.519-.5814-.788-1.1387-.806-1.6717-.026-.7663.202-1.4417.682-2.0262.513-.6191 1.336-.9492 2.469-.9905 1.265-.0461 2.63.3545 4.092 1.2019 1.463.8473 2.859 2.1974 4.188 4.0502 1.362 1.8184 2.491 4.1788 3.389 7.0814s1.414 6.386 1.551 10.4504z" fill="#fff"/></svg>