<svg width="80" height="80" viewBox="0 0 80 80" fill="none" xmlns="http://www.w3.org/2000/svg">
<circle cx="40" cy="40" r="40" fill="#DB4A2B"/>
<path d="M28.2513 59.456C27.1313 59.456 26.0753 59.2 25.0833 58.688C24.0913 58.208 23.2913 57.504 22.6833 56.576C22.1073 55.68 21.8193 54.624 21.8193 53.408C21.8193 52.064 22.2193 50.928 23.0193 50C23.8513 49.104 24.7793 48.432 25.8033 47.984C25.0673 47.504 24.4593 46.912 23.9793 46.208C23.5313 45.472 23.3073 44.656 23.3073 43.76C23.3073 42.512 23.7713 41.456 24.6993 40.592C25.6273 39.728 26.7153 39.152 27.9633 38.864C26.8113 38.128 25.8673 37.216 25.1313 36.128C24.4273 35.04 24.0753 33.824 24.0753 32.48C24.0753 30.528 24.5873 28.944 25.6113 27.728C26.6673 26.512 28.1073 25.616 29.9313 25.04C31.7553 24.432 33.8353 24.128 36.1713 24.128C37.0993 24.128 37.9313 24.176 38.6673 24.272C39.4353 24.336 40.1233 24.448 40.7313 24.608C42.0113 23.84 42.8913 23.04 43.3713 22.208C43.8513 21.376 44.1073 20.704 44.1393 20.192H51.0033C51.0033 21.472 50.7793 22.56 50.3313 23.456C49.8833 24.32 49.2433 25.024 48.4113 25.568C47.5793 26.112 46.5873 26.528 45.4353 26.816C46.2993 27.52 46.9713 28.368 47.4513 29.36C47.9313 30.32 48.1713 31.36 48.1713 32.48C48.1713 34.304 47.7073 35.84 46.7793 37.088C45.8833 38.304 44.6353 39.232 43.0353 39.872C41.4353 40.512 39.5953 40.832 37.5153 40.832H33.7713C32.8753 40.832 32.2033 40.976 31.7553 41.264C31.3393 41.52 31.1313 41.872 31.1313 42.32C31.1313 42.736 31.3233 43.104 31.7073 43.424C32.0913 43.712 32.7473 43.856 33.6753 43.856H43.4193C45.8833 43.856 47.7713 44.56 49.0833 45.968C50.3953 47.344 51.0513 49.104 51.0513 51.248C51.0513 52.88 50.6033 54.304 49.7073 55.52C48.8113 56.768 47.6113 57.728 46.1073 58.4C44.6353 59.104 42.9873 59.456 41.1633 59.456H28.2513ZM32.0433 54.656H40.3473C40.8913 54.656 41.3713 54.544 41.7873 54.32C42.2033 54.128 42.5233 53.84 42.7473 53.456C43.0033 53.104 43.1313 52.688 43.1313 52.208C43.1313 51.408 42.8753 50.8 42.3633 50.384C41.8513 49.968 41.2273 49.76 40.4913 49.76H32.0433C31.3073 49.76 30.6833 49.968 30.1713 50.384C29.6913 50.832 29.4513 51.424 29.4513 52.16C29.4513 52.896 29.6913 53.488 30.1713 53.936C30.6833 54.416 31.3073 54.656 32.0433 54.656ZM36.1233 36.224C37.4993 36.224 38.5553 35.904 39.2913 35.264C40.0593 34.624 40.4433 33.696 40.4433 32.48C40.4433 31.232 40.0593 30.304 39.2913 29.696C38.5553 29.056 37.4993 28.736 36.1233 28.736C34.8113 28.736 33.7713 29.056 33.0033 29.696C32.2353 30.304 31.8513 31.232 31.8513 32.48C31.8513 33.28 32.0113 33.968 32.3313 34.544C32.6513 35.088 33.1313 35.504 33.7713 35.792C34.4113 36.08 35.1953 36.224 36.1233 36.224ZM54.9794 50V41.984H63.3314V50H54.9794Z" fill="#E4E2DD"/>
</svg>
