<svg width="85" height="80" viewBox="0 0 85 80" fill="none" xmlns="http://www.w3.org/2000/svg">
<circle cx="41" cy="40" r="40" fill="#DB4A2B"/>
<path d="M14.6499 49.743C14.2066 49.743 13.7886 49.6417 13.3959 49.439C13.0033 49.249 12.6866 48.9703 12.4459 48.603C12.2179 48.2483 12.1039 47.8303 12.1039 47.349C12.1039 46.817 12.2623 46.3673 12.5789 46C12.9083 45.6453 13.2756 45.3793 13.6809 45.202C13.3896 45.012 13.1489 44.7777 12.9589 44.499C12.7816 44.2077 12.6929 43.8847 12.6929 43.53C12.6929 43.036 12.8766 42.618 13.2439 42.276C13.6113 41.934 14.0419 41.706 14.5359 41.592C14.0799 41.3007 13.7063 40.9397 13.4149 40.509C13.1363 40.0783 12.9969 39.597 12.9969 39.065C12.9969 38.2923 13.1996 37.6653 13.6049 37.184C14.0229 36.7027 14.5929 36.348 15.3149 36.12C16.0369 35.8793 16.8603 35.759 17.7849 35.759C18.1523 35.759 18.4816 35.778 18.7729 35.816C19.0769 35.8413 19.3493 35.8857 19.5899 35.949C20.0966 35.645 20.4449 35.3283 20.6349 34.999C20.8249 34.6697 20.9263 34.4037 20.9389 34.201H23.6559C23.6559 34.7077 23.5673 35.1383 23.3899 35.493C23.2126 35.835 22.9593 36.1137 22.6299 36.329C22.3006 36.5443 21.9079 36.709 21.4519 36.823C21.7939 37.1017 22.0599 37.4373 22.2499 37.83C22.4399 38.21 22.5349 38.6217 22.5349 39.065C22.5349 39.787 22.3513 40.395 21.9839 40.889C21.6293 41.3703 21.1353 41.7377 20.5019 41.991C19.8686 42.2443 19.1403 42.371 18.3169 42.371H16.8349C16.4803 42.371 16.2143 42.428 16.0369 42.542C15.8723 42.6433 15.7899 42.7827 15.7899 42.96C15.7899 43.1247 15.8659 43.2703 16.0179 43.397C16.1699 43.511 16.4296 43.568 16.7969 43.568H20.6539C21.6293 43.568 22.3766 43.8467 22.8959 44.404C23.4153 44.9487 23.6749 45.6453 23.6749 46.494C23.6749 47.14 23.4976 47.7037 23.1429 48.185C22.7883 48.679 22.3133 49.059 21.7179 49.325C21.1353 49.6037 20.4829 49.743 19.7609 49.743H14.6499ZM16.1509 47.843H19.4379C19.6533 47.843 19.8433 47.7987 20.0079 47.71C20.1726 47.634 20.2993 47.52 20.3879 47.368C20.4893 47.2287 20.5399 47.064 20.5399 46.874C20.5399 46.5573 20.4386 46.3167 20.2359 46.152C20.0333 45.9873 19.7863 45.905 19.4949 45.905H16.1509C15.8596 45.905 15.6126 45.9873 15.4099 46.152C15.2199 46.3293 15.1249 46.5637 15.1249 46.855C15.1249 47.1463 15.2199 47.3807 15.4099 47.558C15.6126 47.748 15.8596 47.843 16.1509 47.843ZM17.7659 40.547C18.3106 40.547 18.7286 40.4203 19.0199 40.167C19.3239 39.9137 19.4759 39.5463 19.4759 39.065C19.4759 38.571 19.3239 38.2037 19.0199 37.963C18.7286 37.7097 18.3106 37.583 17.7659 37.583C17.2466 37.583 16.8349 37.7097 16.5309 37.963C16.2269 38.2037 16.0749 38.571 16.0749 39.065C16.0749 39.3817 16.1383 39.654 16.2649 39.882C16.3916 40.0973 16.5816 40.262 16.8349 40.376C17.0883 40.49 17.3986 40.547 17.7659 40.547ZM25.0398 46V35.987H27.6048L27.8328 37.526H27.9658C28.1178 37.184 28.3015 36.88 28.5168 36.614C28.7448 36.3353 29.0171 36.12 29.3338 35.968C29.6631 35.816 30.0242 35.74 30.4168 35.74C30.6448 35.74 30.8538 35.7653 31.0438 35.816C31.2338 35.854 31.3731 35.8983 31.4618 35.949V38.666H30.4738C30.0811 38.666 29.7328 38.723 29.4288 38.837C29.1375 38.9383 28.8968 39.103 28.7068 39.331C28.5168 39.5463 28.3775 39.8123 28.2888 40.129C28.2001 40.4457 28.1558 40.813 28.1558 41.231V46H25.0398ZM35.3846 46.228C34.9666 46.228 34.5549 46.1837 34.1496 46.095C33.7569 46.019 33.3959 45.8797 33.0666 45.677C32.7499 45.4617 32.4966 45.1703 32.3066 44.803C32.1166 44.4357 32.0216 43.9733 32.0216 43.416C32.0216 42.694 32.1736 42.105 32.4776 41.649C32.7816 41.193 33.2186 40.8383 33.7886 40.585C34.3712 40.319 35.0679 40.1353 35.8786 40.034C36.7019 39.9327 37.6202 39.882 38.6336 39.882V39.255C38.6336 38.9637 38.5766 38.723 38.4626 38.533C38.3486 38.3303 38.1776 38.1783 37.9496 38.077C37.7342 37.963 37.4429 37.906 37.0756 37.906C36.7462 37.906 36.4549 37.944 36.2016 38.02C35.9609 38.096 35.7772 38.21 35.6506 38.362C35.5239 38.5013 35.4606 38.6723 35.4606 38.875V39.046H32.4206C32.4079 38.9827 32.4016 38.932 32.4016 38.894C32.4016 38.8433 32.4016 38.78 32.4016 38.704C32.4016 38.1087 32.5852 37.5893 32.9526 37.146C33.3326 36.7027 33.8709 36.3607 34.5676 36.12C35.2642 35.8793 36.1066 35.759 37.0946 35.759C38.0192 35.759 38.8236 35.873 39.5076 36.101C40.2042 36.329 40.7489 36.6773 41.1416 37.146C41.5469 37.6147 41.7496 38.229 41.7496 38.989V43.264C41.7496 43.4793 41.8066 43.6503 41.9206 43.777C42.0472 43.9037 42.1992 43.967 42.3766 43.967H43.0226V45.886C42.8832 45.9493 42.6616 46.019 42.3576 46.095C42.0662 46.1837 41.7116 46.228 41.2936 46.228C40.8629 46.228 40.4829 46.171 40.1536 46.057C39.8369 45.9557 39.5709 45.81 39.3556 45.62C39.1529 45.4173 39.0136 45.183 38.9376 44.917H38.8046C38.5639 45.1703 38.2789 45.3983 37.9496 45.601C37.6329 45.8037 37.2592 45.9557 36.8286 46.057C36.4106 46.171 35.9292 46.228 35.3846 46.228ZM36.5436 44.081C36.8476 44.081 37.1262 44.0367 37.3796 43.948C37.6329 43.8593 37.8482 43.739 38.0256 43.587C38.2156 43.4223 38.3612 43.226 38.4626 42.998C38.5766 42.77 38.6336 42.523 38.6336 42.257V41.592C37.9116 41.592 37.2909 41.6427 36.7716 41.744C36.2522 41.8453 35.8532 42.0037 35.5746 42.219C35.2959 42.4343 35.1566 42.7067 35.1566 43.036C35.1566 43.2767 35.2136 43.4793 35.3276 43.644C35.4542 43.796 35.6189 43.91 35.8216 43.986C36.0242 44.0493 36.2649 44.081 36.5436 44.081ZM44.2996 46V35.987H46.8646L47.0926 37.412H47.2256C47.4789 37.07 47.7702 36.7723 48.0996 36.519C48.4289 36.2657 48.8026 36.0757 49.2206 35.949C49.6386 35.8223 50.0819 35.759 50.5506 35.759C51.2726 35.759 51.8806 35.892 52.3746 36.158C52.8812 36.424 53.2676 36.823 53.5336 37.355C53.7996 37.887 53.9326 38.5647 53.9326 39.388V46H50.8166V39.825C50.8166 39.5463 50.7786 39.312 50.7026 39.122C50.6392 38.9193 50.5442 38.7483 50.4176 38.609C50.2909 38.4697 50.1326 38.3683 49.9426 38.305C49.7526 38.2417 49.5372 38.21 49.2966 38.21C48.9292 38.21 48.6062 38.2987 48.3276 38.476C48.0489 38.6407 47.8272 38.8687 47.6626 39.16C47.4979 39.4387 47.4156 39.768 47.4156 40.148V46H44.2996ZM59.8968 46.228C59.0481 46.228 58.3135 46.038 57.6928 45.658C57.0721 45.278 56.5971 44.7017 56.2678 43.929C55.9385 43.1563 55.7738 42.1683 55.7738 40.965C55.7738 39.787 55.9385 38.818 56.2678 38.058C56.6098 37.2853 57.0848 36.709 57.6928 36.329C58.3008 35.949 59.0165 35.759 59.8398 35.759C60.2325 35.759 60.6061 35.8033 60.9608 35.892C61.3281 35.9807 61.6511 36.12 61.9298 36.31C62.2211 36.5 62.4681 36.7343 62.6708 37.013H62.7848V32.244H65.9008V46H63.3548L63.1268 44.613H62.9938C62.6518 45.1577 62.2148 45.563 61.6828 45.829C61.1508 46.095 60.5555 46.228 59.8968 46.228ZM60.8658 43.796C61.3218 43.796 61.6891 43.6947 61.9678 43.492C62.2591 43.2767 62.4681 42.979 62.5948 42.599C62.7341 42.2063 62.8038 41.7503 62.8038 41.231V40.775C62.8038 40.395 62.7658 40.0467 62.6898 39.73C62.6138 39.4133 62.4998 39.141 62.3478 38.913C62.1958 38.685 61.9931 38.5077 61.7398 38.381C61.4991 38.2543 61.2078 38.191 60.8658 38.191C60.3971 38.191 60.0171 38.286 59.7258 38.476C59.4471 38.666 59.2445 38.9447 59.1178 39.312C58.9911 39.6793 58.9278 40.1353 58.9278 40.68V41.345C58.9278 41.877 58.9911 42.3267 59.1178 42.694C59.2445 43.0613 59.4471 43.34 59.7258 43.53C60.0171 43.7073 60.3971 43.796 60.8658 43.796ZM68.4622 46V42.827H71.7682V46H68.4622Z" fill="#E4E2DD"/>
<path d="M36.0825 52.0342C35.7726 52.0342 35.522 51.9578 35.3306 51.8052C35.1392 51.6525 35.0435 51.4258 35.0435 51.125C35.0435 50.8083 35.1403 50.5701 35.334 50.4106C35.5277 50.2489 35.7635 50.1452 36.0415 50.0996C36.3218 50.0518 36.6613 50.0244 37.0601 50.0176V49.7305C37.0601 49.5778 37.0076 49.4559 36.9028 49.3647C36.8003 49.2713 36.6305 49.2246 36.3936 49.2246C36.2135 49.2246 36.0552 49.2463 35.9185 49.2896C35.784 49.3306 35.6576 49.3807 35.5391 49.4399C35.4889 49.465 35.4582 49.4775 35.4468 49.4775C35.4194 49.4775 35.3887 49.4582 35.3545 49.4194C35.3226 49.3784 35.2941 49.3328 35.269 49.2827C35.2463 49.2326 35.2349 49.1961 35.2349 49.1733C35.2349 49.1209 35.2884 49.064 35.3955 49.0024C35.5049 48.9409 35.6473 48.8896 35.8228 48.8486C35.9982 48.8076 36.1816 48.7871 36.373 48.7871C36.7536 48.7871 37.0487 48.8703 37.2583 49.0366C37.4679 49.203 37.5728 49.4365 37.5728 49.7373V51.1011C37.5728 51.3654 37.5841 51.5568 37.6069 51.6753C37.632 51.7915 37.6445 51.8553 37.6445 51.8667C37.6445 51.9168 37.6058 51.9533 37.5283 51.9761C37.4531 51.9966 37.3825 52.0068 37.3164 52.0068C37.2617 52.0068 37.2207 51.9761 37.1934 51.9146C37.1683 51.853 37.1432 51.7642 37.1182 51.6479L37.1045 51.5796C36.9792 51.7186 36.8311 51.8291 36.6602 51.9111C36.4915 51.9932 36.299 52.0342 36.0825 52.0342ZM36.1099 51.5933C36.3104 51.5933 36.4813 51.5568 36.6226 51.4839C36.7638 51.411 36.9097 51.3073 37.0601 51.1729V50.4551C36.7593 50.4574 36.512 50.4699 36.3184 50.4927C36.1247 50.5155 35.9549 50.5736 35.8091 50.667C35.6632 50.7581 35.5903 50.9006 35.5903 51.0942C35.5903 51.256 35.6336 51.3802 35.7202 51.4668C35.8091 51.5511 35.939 51.5933 36.1099 51.5933ZM39.5073 52.0342C39.1974 52.0342 38.9548 51.9476 38.7793 51.7744C38.6038 51.599 38.5161 51.3574 38.5161 51.0498V48.9443C38.5161 48.8555 38.5981 48.811 38.7622 48.811H38.7861C38.9479 48.811 39.0288 48.8555 39.0288 48.9443V51.002C39.0288 51.1888 39.0824 51.3346 39.1895 51.4395C39.2988 51.542 39.4515 51.5933 39.6475 51.5933C39.7842 51.5933 39.9209 51.5557 40.0576 51.4805C40.1943 51.403 40.3128 51.2982 40.4131 51.166V48.9443C40.4131 48.8555 40.494 48.811 40.6558 48.811H40.6797C40.8438 48.811 40.9258 48.8555 40.9258 48.9443V51.1011C40.9258 51.3654 40.9372 51.5568 40.96 51.6753C40.9827 51.7915 40.9941 51.8553 40.9941 51.8667C40.9941 51.9168 40.9565 51.9533 40.8813 51.9761C40.8062 51.9966 40.7355 52.0068 40.6694 52.0068C40.6125 52.0068 40.5703 51.9749 40.543 51.9111C40.5156 51.8451 40.4951 51.7778 40.4814 51.7095C40.4701 51.6411 40.4621 51.5978 40.4575 51.5796C40.3299 51.7231 40.1818 51.8348 40.0132 51.9146C39.8468 51.9943 39.6782 52.0342 39.5073 52.0342ZM42.8809 52.0342C42.6781 52.0342 42.4969 51.9727 42.3374 51.8496C42.1779 51.7266 42.0981 51.509 42.0981 51.1968V49.2588H41.7939C41.7507 49.2588 41.7188 49.2451 41.6982 49.2178C41.68 49.1882 41.6709 49.1414 41.6709 49.0776V49.0024C41.6709 48.9386 41.68 48.8931 41.6982 48.8657C41.7188 48.8361 41.7507 48.8213 41.7939 48.8213H42.0981L42.1699 48.1855C42.1745 48.0967 42.2394 48.0522 42.3647 48.0522H42.4229C42.4867 48.0522 42.5334 48.0636 42.563 48.0864C42.5926 48.1069 42.6074 48.14 42.6074 48.1855V48.8213H43.1167C43.16 48.8213 43.1908 48.8361 43.209 48.8657C43.2295 48.8931 43.2397 48.9386 43.2397 49.0024V49.0776C43.2397 49.1414 43.2295 49.1882 43.209 49.2178C43.1908 49.2451 43.16 49.2588 43.1167 49.2588H42.6074V51.1489C42.6074 51.3153 42.6359 51.4315 42.6929 51.4976C42.7521 51.5636 42.8319 51.5967 42.9321 51.5967C43.0096 51.5967 43.0688 51.5921 43.1099 51.583C43.1532 51.5739 43.1816 51.5693 43.1953 51.5693C43.2318 51.5693 43.2614 51.6058 43.2842 51.6787C43.3092 51.7516 43.3218 51.8097 43.3218 51.853C43.3218 51.9738 43.1748 52.0342 42.8809 52.0342ZM45.2734 52.0342C44.8154 52.0342 44.4657 51.8975 44.2241 51.624C43.9849 51.3483 43.8652 50.9484 43.8652 50.4243C43.8652 49.9002 43.9871 49.4969 44.231 49.2144C44.4748 48.9295 44.8223 48.7871 45.2734 48.7871C45.7201 48.7871 46.0618 48.9284 46.2988 49.2109C46.5358 49.4912 46.6543 49.8957 46.6543 50.4243C46.6543 50.9507 46.5369 51.3506 46.3022 51.624C46.0698 51.8975 45.7269 52.0342 45.2734 52.0342ZM45.2563 51.5967C45.5526 51.5967 45.7713 51.501 45.9126 51.3096C46.0539 51.1159 46.1245 50.8174 46.1245 50.4141C46.1245 50.0085 46.0539 49.7088 45.9126 49.5151C45.7713 49.3215 45.5526 49.2246 45.2563 49.2246C44.9624 49.2246 44.7459 49.3215 44.6069 49.5151C44.4679 49.7065 44.3984 50.0062 44.3984 50.4141C44.3984 50.8197 44.4668 51.1182 44.6035 51.3096C44.7425 51.501 44.9601 51.5967 45.2563 51.5967ZM50.7319 48.7871C50.9849 48.7871 51.207 48.8589 51.3984 49.0024C51.5898 49.146 51.6855 49.4012 51.6855 49.7681V51.877C51.6855 51.9225 51.6662 51.9567 51.6274 51.9795C51.5887 52 51.5272 52.0103 51.4429 52.0103H51.4224C51.3358 52.0103 51.2731 52 51.2344 51.9795C51.1956 51.9567 51.1763 51.9225 51.1763 51.877V49.8193C51.1763 49.6348 51.1261 49.4901 51.0259 49.3853C50.9279 49.2804 50.7832 49.228 50.5918 49.228C50.4323 49.228 50.2876 49.2747 50.1577 49.3682C50.0301 49.4593 49.9264 49.555 49.8467 49.6553C49.8512 49.71 49.8535 49.751 49.8535 49.7783V51.877C49.8535 51.9658 49.7715 52.0103 49.6074 52.0103H49.5835C49.4217 52.0103 49.3408 51.9658 49.3408 51.877V49.8193C49.3408 49.6348 49.2907 49.4901 49.1904 49.3853C49.0924 49.2804 48.9478 49.228 48.7563 49.228C48.6242 49.228 48.5034 49.2599 48.394 49.3237C48.2847 49.3853 48.1935 49.4525 48.1206 49.5254C48.05 49.5983 48.0146 49.6393 48.0146 49.6484V51.877C48.0146 51.9225 47.9953 51.9567 47.9565 51.9795C47.9201 52 47.8597 52.0103 47.7754 52.0103H47.748C47.6637 52.0103 47.6022 52 47.5635 51.9795C47.527 51.9567 47.5088 51.9225 47.5088 51.877V49.7441C47.5088 49.4798 47.4963 49.2896 47.4712 49.1733C47.4461 49.0549 47.4336 48.9899 47.4336 48.9785C47.4336 48.9284 47.4712 48.8931 47.5464 48.8726C47.6239 48.8498 47.6956 48.8384 47.7617 48.8384C47.8187 48.8384 47.8608 48.8691 47.8882 48.9307C47.9155 48.9922 47.9349 49.0549 47.9463 49.1187C47.96 49.1825 47.9691 49.2235 47.9736 49.2417C48.0853 49.1118 48.222 49.0036 48.3838 48.917C48.5456 48.8304 48.7165 48.7871 48.8965 48.7871C49.0811 48.7871 49.2531 48.8247 49.4126 48.8999C49.5721 48.9728 49.6895 49.1027 49.7646 49.2896C49.89 49.1414 50.0369 49.0207 50.2056 48.9272C50.3742 48.8338 50.5496 48.7871 50.7319 48.7871ZM53.48 52.0342C53.1701 52.0342 52.9194 51.9578 52.728 51.8052C52.5366 51.6525 52.4409 51.4258 52.4409 51.125C52.4409 50.8083 52.5378 50.5701 52.7314 50.4106C52.9251 50.2489 53.161 50.1452 53.439 50.0996C53.7192 50.0518 54.0588 50.0244 54.4575 50.0176V49.7305C54.4575 49.5778 54.4051 49.4559 54.3003 49.3647C54.1978 49.2713 54.028 49.2246 53.791 49.2246C53.611 49.2246 53.4526 49.2463 53.3159 49.2896C53.1815 49.3306 53.055 49.3807 52.9365 49.4399C52.8864 49.465 52.8556 49.4775 52.8442 49.4775C52.8169 49.4775 52.7861 49.4582 52.752 49.4194C52.7201 49.3784 52.6916 49.3328 52.6665 49.2827C52.6437 49.2326 52.6323 49.1961 52.6323 49.1733C52.6323 49.1209 52.6859 49.064 52.793 49.0024C52.9023 48.9409 53.0448 48.8896 53.2202 48.8486C53.3957 48.8076 53.5791 48.7871 53.7705 48.7871C54.151 48.7871 54.4461 48.8703 54.6558 49.0366C54.8654 49.203 54.9702 49.4365 54.9702 49.7373V51.1011C54.9702 51.3654 54.9816 51.5568 55.0044 51.6753C55.0295 51.7915 55.042 51.8553 55.042 51.8667C55.042 51.9168 55.0033 51.9533 54.9258 51.9761C54.8506 51.9966 54.7799 52.0068 54.7139 52.0068C54.6592 52.0068 54.6182 51.9761 54.5908 51.9146C54.5658 51.853 54.5407 51.7642 54.5156 51.6479L54.502 51.5796C54.3766 51.7186 54.2285 51.8291 54.0576 51.9111C53.889 51.9932 53.6965 52.0342 53.48 52.0342ZM53.5073 51.5933C53.7078 51.5933 53.8787 51.5568 54.02 51.4839C54.1613 51.411 54.3071 51.3073 54.4575 51.1729V50.4551C54.1567 50.4574 53.9095 50.4699 53.7158 50.4927C53.5221 50.5155 53.3524 50.5736 53.2065 50.667C53.0607 50.7581 52.9878 50.9006 52.9878 51.0942C52.9878 51.256 53.0311 51.3802 53.1177 51.4668C53.2065 51.5511 53.3364 51.5933 53.5073 51.5933ZM56.8945 52.0342C56.6917 52.0342 56.5106 51.9727 56.3511 51.8496C56.1916 51.7266 56.1118 51.509 56.1118 51.1968V49.2588H55.8076C55.7643 49.2588 55.7324 49.2451 55.7119 49.2178C55.6937 49.1882 55.6846 49.1414 55.6846 49.0776V49.0024C55.6846 48.9386 55.6937 48.8931 55.7119 48.8657C55.7324 48.8361 55.7643 48.8213 55.8076 48.8213H56.1118L56.1836 48.1855C56.1882 48.0967 56.2531 48.0522 56.3784 48.0522H56.4365C56.5003 48.0522 56.547 48.0636 56.5767 48.0864C56.6063 48.1069 56.6211 48.14 56.6211 48.1855V48.8213H57.1304C57.1737 48.8213 57.2044 48.8361 57.2227 48.8657C57.2432 48.8931 57.2534 48.9386 57.2534 49.0024V49.0776C57.2534 49.1414 57.2432 49.1882 57.2227 49.2178C57.2044 49.2451 57.1737 49.2588 57.1304 49.2588H56.6211V51.1489C56.6211 51.3153 56.6496 51.4315 56.7065 51.4976C56.7658 51.5636 56.8455 51.5967 56.9458 51.5967C57.0233 51.5967 57.0825 51.5921 57.1235 51.583C57.1668 51.5739 57.1953 51.5693 57.209 51.5693C57.2454 51.5693 57.2751 51.6058 57.2979 51.6787C57.3229 51.7516 57.3354 51.8097 57.3354 51.853C57.3354 51.9738 57.1885 52.0342 56.8945 52.0342ZM58.3164 48.0557C58.1546 48.0557 58.0737 48.0112 58.0737 47.9224V47.5635C58.0737 47.4746 58.1546 47.4302 58.3164 47.4302H58.3882C58.5522 47.4302 58.6343 47.4746 58.6343 47.5635V47.9224C58.6343 48.0112 58.5522 48.0557 58.3882 48.0557H58.3164ZM58.3403 52.0103C58.1785 52.0103 58.0977 51.9658 58.0977 51.877V48.9443C58.0977 48.8555 58.1785 48.811 58.3403 48.811H58.3643C58.5283 48.811 58.6104 48.8555 58.6104 48.9443V51.877C58.6104 51.9658 58.5283 52.0103 58.3643 52.0103H58.3403ZM60.9004 52.0342C60.4424 52.0342 60.0926 51.8975 59.8511 51.624C59.6118 51.3483 59.4922 50.9484 59.4922 50.4243C59.4922 49.9002 59.6141 49.4969 59.8579 49.2144C60.1017 48.9295 60.4492 48.7871 60.9004 48.7871C61.347 48.7871 61.6888 48.9284 61.9258 49.2109C62.1628 49.4912 62.2812 49.8957 62.2812 50.4243C62.2812 50.9507 62.1639 51.3506 61.9292 51.624C61.6968 51.8975 61.3538 52.0342 60.9004 52.0342ZM60.8833 51.5967C61.1795 51.5967 61.3983 51.501 61.5396 51.3096C61.6808 51.1159 61.7515 50.8174 61.7515 50.4141C61.7515 50.0085 61.6808 49.7088 61.5396 49.5151C61.3983 49.3215 61.1795 49.2246 60.8833 49.2246C60.5894 49.2246 60.3729 49.3215 60.2339 49.5151C60.0949 49.7065 60.0254 50.0062 60.0254 50.4141C60.0254 50.8197 60.0938 51.1182 60.2305 51.3096C60.3695 51.501 60.5871 51.5967 60.8833 51.5967ZM63.3853 52.0103C63.2987 52.0103 63.236 52 63.1973 51.9795C63.1585 51.9567 63.1392 51.9225 63.1392 51.877V49.7441C63.1392 49.4798 63.1266 49.2896 63.1016 49.1733C63.0765 49.0549 63.064 48.9899 63.064 48.9785C63.064 48.9284 63.1016 48.8931 63.1768 48.8726C63.2542 48.8498 63.3271 48.8384 63.3955 48.8384C63.4525 48.8384 63.4946 48.8691 63.522 48.9307C63.5493 48.9922 63.5687 49.0549 63.5801 49.1187C63.5938 49.1825 63.6029 49.2235 63.6074 49.2417C63.735 49.0981 63.882 48.9865 64.0483 48.9067C64.217 48.827 64.3867 48.7871 64.5576 48.7871C64.8675 48.7871 65.109 48.8748 65.2822 49.0503C65.4577 49.2235 65.5454 49.4627 65.5454 49.7681V51.877C65.5454 51.9225 65.526 51.9567 65.4873 51.9795C65.4486 52 65.387 52.0103 65.3027 52.0103H65.2754C65.1934 52.0103 65.133 52 65.0942 51.9795C65.0555 51.9567 65.0361 51.9225 65.0361 51.877V49.8193C65.0361 49.6325 64.9814 49.4878 64.8721 49.3853C64.765 49.2804 64.6134 49.228 64.4175 49.228C64.2808 49.228 64.1429 49.2668 64.0039 49.3442C63.8672 49.4194 63.7487 49.5231 63.6484 49.6553V51.877C63.6484 51.9225 63.6291 51.9567 63.5903 51.9795C63.5516 52 63.4912 52.0103 63.4092 52.0103H63.3853Z" fill="#E4E2DD"/>
</svg>
