<svg width="202" height="202" viewBox="0 0 202 202" fill="none" xmlns="http://www.w3.org/2000/svg">
<rect width="202" height="202" rx="20" fill="#FFBF00"/>
<path d="M46.0134 64.9839C45.8959 61.6193 46.2064 58.5733 46.945 55.8458C47.6825 53.0851 48.6837 50.7154 49.9488 48.7367C51.246 46.7235 52.6427 45.1738 54.1391 44.0876C55.6675 42.9669 57.148 42.3816 58.5805 42.3315C59.3467 42.3048 59.9556 42.5503 60.4073 43.0682C60.8923 43.5849 61.1476 44.2098 61.1732 44.9426C61.1895 45.409 60.9571 45.9174 60.476 46.4679C60.0282 47.0172 59.2347 47.6953 58.0955 48.5022C56.4051 49.762 55.0525 51.1434 54.0377 52.6464C53.0562 54.1482 52.3654 55.8567 51.9653 57.7718C51.5985 59.6858 51.46 61.9253 51.5495 64.4904C51.6403 67.0888 51.9555 69.4293 52.4951 71.5117C53.067 73.5596 53.8977 75.3818 54.9874 76.978C56.1105 78.5731 57.5097 79.9585 59.185 81.1341C60.279 81.8964 61.0857 82.5519 61.6051 83.1008C62.1258 83.683 62.3954 84.2406 62.414 84.7736C62.4396 85.5065 62.213 86.1815 61.7343 86.7986C61.2555 87.4156 60.4332 87.7445 59.2672 87.7853C58.0013 87.8295 56.6364 87.4269 55.1726 86.5774C53.7087 85.728 52.294 84.3765 50.9285 82.5231C49.5974 80.7017 48.481 78.3393 47.5791 75.4356C46.6772 72.532 46.1553 69.0481 46.0134 64.9839ZM70.543 50.6191C71.609 50.5819 72.3404 50.9899 72.7371 51.8433C73.1671 52.6954 73.4117 53.971 73.4711 55.67C73.485 56.0697 73.4668 56.504 73.4165 56.9727C73.3983 57.4069 73.3456 57.809 73.2585 58.1789L73.1237 57.183C73.8476 54.9898 75.0214 53.2644 76.6452 52.007C78.2678 50.7162 80.0118 50.0383 81.8774 49.9731C83.9428 49.901 85.6788 50.4241 87.0853 51.5423C88.5252 52.6594 89.6149 54.2557 90.3544 56.3312C91.1273 58.4055 91.5637 60.8751 91.6638 63.74C91.7254 65.5056 91.7032 67.2574 91.5972 68.9955C91.5232 70.6991 91.378 72.2718 91.1616 73.7136C90.9772 75.1209 90.7509 76.2795 90.4824 77.1894C90.1222 78.336 89.6356 79.2035 89.0224 79.7919C88.4081 80.3471 87.6678 80.6397 86.8017 80.67C85.9355 80.7002 85.2582 80.407 84.7697 79.7904C84.2813 79.1737 84.0184 78.3324 83.9812 77.2663C83.9416 76.1337 83.9772 74.765 84.0879 73.1601C84.1975 71.522 84.2898 69.8677 84.3649 68.1974C84.4721 66.4926 84.5019 64.9573 84.4542 63.5915C84.2914 58.9277 82.6775 56.6493 79.6127 56.7563C77.9804 56.8133 76.6401 57.5939 75.592 59.0981C74.5427 60.5689 73.8813 62.6432 73.608 65.3211C73.5394 66.224 73.5284 67.3418 73.575 68.6743C73.6215 70.0068 73.668 71.3393 73.7146 72.6718C73.7933 73.9699 73.7983 75.0704 73.7298 75.9733C73.6663 77.9768 73.3333 79.4226 72.7306 80.3108C72.1612 81.1979 71.3435 81.6601 70.2775 81.6973C69.0449 81.7403 68.0923 81.2066 67.4198 80.096C66.7462 78.9522 66.3616 77.0144 66.2663 74.2828C66.2174 72.8836 66.196 71.3167 66.2022 69.5821C66.2083 67.8475 66.2311 66.1124 66.2705 64.3766C66.3421 62.6063 66.4362 61.0021 66.5527 59.5638C66.7916 56.8538 67.2002 54.7049 67.7785 53.1171C68.3556 51.496 69.2771 50.6633 70.543 50.6191ZM101.407 42.2869C102.739 42.2404 103.702 42.5736 104.294 43.2867C104.919 43.9987 105.248 44.8377 105.282 45.8038C105.324 47.0031 104.99 47.9486 104.28 48.6405C103.603 49.2978 102.615 49.6492 101.315 49.6946C100.05 49.7388 99.0879 49.4222 98.4305 48.7447C97.772 48.0339 97.4258 47.1955 97.3921 46.2294C97.3479 44.9635 97.6978 44.0007 98.4419 43.341C99.186 42.6813 100.174 42.3299 101.407 42.2869ZM102.096 53.4196C103.162 53.3824 104.03 54.3527 104.699 56.3305C105.402 58.3072 105.829 61.4776 105.982 65.8416C106.169 71.205 105.921 75.0827 105.237 77.4746C104.554 79.8666 103.429 81.09 101.863 81.1446C100.664 81.1865 99.751 80.3512 99.1242 78.6387C98.4962 76.8929 98.1061 73.838 97.9537 69.474C97.7664 64.1106 98.0604 60.1145 98.8358 57.4859C99.6434 54.8227 100.73 53.4673 102.096 53.4196ZM126.603 80.1807C122.905 80.3098 119.937 79.8631 117.7 78.8405C115.463 77.818 113.826 76.2909 112.788 74.2592C111.749 72.2275 111.18 69.7792 111.08 66.9143C110.953 63.2832 111.512 60.1785 112.756 57.6001C114.032 54.9873 115.829 52.9567 118.147 51.5083C120.498 50.0587 123.189 49.281 126.22 49.1751C129.785 49.0506 132.429 49.7921 134.153 51.3996C135.875 52.9738 136.783 55.0934 136.876 57.7584C136.951 59.8905 136.449 61.7591 135.371 63.3644C134.325 64.9352 132.834 66.1713 130.898 67.0728C128.961 67.9742 126.711 68.4697 124.146 68.5593C122.713 68.6093 121.324 68.4744 119.979 68.1545C118.634 67.8346 117.417 67.3768 116.329 66.781L117.451 64.5405C117.379 65.3435 117.357 66.1448 117.385 66.9443C117.466 69.2762 118.258 70.9329 119.76 71.9144C121.261 72.8626 123.36 73.2896 126.058 73.1954C128.157 73.1221 129.833 72.8801 131.086 72.4695C132.339 72.0588 133.393 71.6718 134.248 71.3084C135.101 70.9118 135.944 70.6989 136.777 70.6698C137.243 70.6535 137.664 70.7722 138.04 71.0259C138.448 71.2451 138.777 71.5839 139.026 72.0421C139.309 72.4992 139.462 73.0609 139.485 73.7271C139.52 74.7265 139.054 75.71 138.087 76.6777C137.119 77.6121 135.663 78.4134 133.719 79.0816C131.806 79.7154 129.434 80.0818 126.603 80.1807ZM123.134 63.9418C125.499 63.8592 127.38 63.2932 128.778 62.2438C130.175 61.1944 130.849 59.9368 130.797 58.471C130.757 57.3051 130.324 56.3696 129.499 55.6646C128.706 54.9252 127.476 54.5846 125.811 54.6427C124.245 54.6974 122.84 55.0467 121.595 55.6905C120.382 56.2999 119.442 57.0831 118.775 58.0403C118.108 58.9975 117.794 60.0258 117.832 61.1251C117.866 62.0912 118.342 62.825 119.26 63.3266C120.21 63.7938 121.501 63.9988 123.134 63.9418ZM157.286 62.1488C157.402 65.4801 157.092 68.5262 156.354 71.2869C155.617 74.0477 154.6 76.4346 153.303 78.4478C152.037 80.4265 150.64 81.9595 149.11 83.0469C147.615 84.1664 146.151 84.7512 144.719 84.8012C143.986 84.8268 143.377 84.5812 142.892 84.0645C142.407 83.5478 142.152 82.923 142.126 82.1901C142.11 81.7237 142.342 81.2153 142.824 80.6648C143.305 80.1144 144.098 79.4363 145.204 78.6305C146.928 77.3696 148.28 75.9882 149.262 74.4864C150.243 72.9846 150.917 71.2767 151.284 69.3627C151.683 67.4142 151.838 65.1741 151.75 62.6423C151.659 60.0439 151.328 57.7207 150.756 55.6728C150.216 53.5903 149.402 51.751 148.312 50.1547C147.222 48.5584 145.823 47.1731 144.114 45.9987C143.054 45.2352 142.247 44.5796 141.694 44.0319C141.174 43.4498 140.904 42.8922 140.885 42.3591C140.859 41.5929 141.085 40.918 141.565 40.3342C142.077 39.7159 142.9 39.387 144.032 39.3475C145.298 39.3033 146.663 39.7059 148.127 40.5553C149.591 41.4048 150.989 42.7568 152.321 44.6114C153.685 46.4316 154.819 48.7935 155.72 51.6971C156.622 54.6007 157.144 58.0846 157.286 62.1488Z" fill="#714204"/>
<path d="M34.6703 117.005C34.6145 115.406 35.35 113.546 36.8769 111.425C38.4038 109.303 40.5912 106.992 43.4389 104.492C46.2867 101.991 49.6658 99.4211 53.5761 96.783L53.5691 96.5832C52.0518 97.0697 50.3835 97.5282 48.5641 97.9587C46.7435 98.3558 44.9878 98.7006 43.297 98.9931C41.605 99.2523 40.1927 99.4017 39.06 99.4413C37.3278 99.5017 36.0526 99.2794 35.2344 98.7744C34.4496 98.2681 34.0386 97.482 34.0014 96.416C33.9746 95.6498 34.2173 94.9575 34.7293 94.3393C35.2747 93.7199 36.008 93.2273 36.9291 92.8616C37.8812 92.4281 39.035 92.0376 40.3903 91.6901C41.7457 91.3426 43.1867 91.0588 44.7132 90.8387C46.2398 90.6186 47.7194 90.4836 49.1518 90.4336C51.3505 90.3568 53.1879 90.4427 54.6642 90.6913C56.1392 90.9067 57.2566 91.3846 58.0163 92.1252C58.808 92.8314 59.229 93.9007 59.279 95.3331C59.3115 96.2659 58.9674 97.3952 58.2466 98.7212C57.5246 100.014 56.3759 101.505 54.8006 103.194C53.2574 104.849 51.2382 106.721 48.7429 108.809C46.2476 110.897 43.2429 113.204 39.7288 115.728L39.7358 115.928C40.9211 115.486 42.3081 115.087 43.8966 114.732C45.4852 114.376 47.1427 114.085 48.8691 113.858C50.6277 113.596 52.3066 113.437 53.9056 113.382C55.9044 113.312 57.3461 113.528 58.2309 114.031C59.1145 114.501 59.5766 115.318 59.6173 116.484C59.6709 118.017 58.6824 119.319 56.6519 120.39C54.6213 121.462 51.624 122.067 47.6597 122.205C43.329 122.356 40.0969 121.969 37.9632 121.043C35.8296 120.117 34.732 118.771 34.6703 117.005ZM69.0059 89.9904C70.0719 89.9532 70.8032 90.3612 71.1999 91.2146C71.6299 92.0668 71.8746 93.3423 71.9339 95.0413C71.9479 95.441 71.9297 95.8753 71.8794 96.344C71.8612 96.7782 71.8085 97.1803 71.7214 97.5502L71.5865 96.5543C72.3104 94.3611 73.4842 92.6357 75.108 91.3783C76.7306 90.0875 78.4747 89.4096 80.3402 89.3444C82.4056 89.2723 84.1416 89.7954 85.5482 90.9136C86.988 92.0307 88.0777 93.627 88.8173 95.7025C89.5901 97.7768 90.0266 100.246 90.1266 103.111C90.1883 104.877 90.1661 106.629 90.06 108.367C89.9861 110.07 89.8409 111.643 89.6244 113.085C89.4401 114.492 89.2137 115.651 88.9453 116.561C88.5851 117.707 88.0984 118.575 87.4852 119.163C86.8709 119.718 86.1307 120.011 85.2645 120.041C84.3984 120.072 83.7211 119.778 83.2326 119.162C82.7441 118.545 82.4813 117.704 82.444 116.638C82.4045 115.505 82.4401 114.136 82.5508 112.531C82.6603 110.893 82.7527 109.239 82.8278 107.569C82.935 105.864 82.9648 104.329 82.9171 102.963C82.7542 98.299 81.1404 96.0206 78.0756 96.1276C76.4432 96.1846 75.103 96.9652 74.0549 98.4694C73.0055 99.9402 72.3442 102.015 72.0708 104.692C72.0023 105.595 71.9913 106.713 72.0378 108.046C72.0844 109.378 72.1309 110.711 72.1774 112.043C72.2561 113.341 72.2612 114.442 72.1927 115.345C72.1292 117.348 71.7961 118.794 71.1934 119.682C70.624 120.569 69.8063 121.031 68.7403 121.069C67.5077 121.112 66.5552 120.578 65.8827 119.467C65.209 118.324 64.8245 116.386 64.7291 113.654C64.6802 112.255 64.6589 110.688 64.665 108.953C64.6712 107.219 64.6939 105.484 64.7334 103.748C64.805 101.978 64.8991 100.373 65.0156 98.9351C65.2545 96.2251 65.6631 94.0762 66.2414 92.4884C66.8185 90.8673 67.74 90.0346 69.0059 89.9904ZM118.665 119.876C117.532 119.915 116.734 119.509 116.271 118.658C115.84 117.773 115.557 116.365 115.423 114.435L115.932 114.668C114.193 118.364 110.725 120.303 105.528 120.484C103.163 120.567 101.183 120.219 99.5882 119.441C97.9923 118.63 96.7868 117.538 95.9717 116.165C95.1888 114.758 94.7683 113.222 94.7101 111.556C94.6101 108.692 95.5303 106.391 97.471 104.656C99.4104 102.887 102.029 101.945 105.327 101.83C107.492 101.754 109.386 102.005 111.007 102.582C112.628 103.159 114.025 103.994 115.197 105.088L114.344 105.017C113.993 101.661 113.177 99.2879 111.894 97.8984C110.643 96.4746 108.902 95.8016 106.67 95.8795C105.371 95.9249 104.179 96.1666 103.093 96.6048C102.008 97.0429 101.007 97.4948 100.089 97.9605C99.2034 98.3916 98.3609 98.6212 97.5614 98.6491C96.7619 98.677 96.1196 98.4326 95.6346 97.9159C95.1829 97.398 94.9426 96.7227 94.9135 95.8898C94.8716 94.6906 95.3984 93.5381 96.4938 92.4326C97.6225 91.3258 99.1247 90.4062 101 89.6736C102.876 88.9411 104.93 88.5358 107.162 88.4579C109.86 88.3636 112.198 88.9324 114.175 90.1641C116.153 91.3958 117.685 93.2435 118.772 95.7071C119.712 97.8089 120.412 100.169 120.87 102.788C121.328 105.407 121.61 108.216 121.715 111.214C121.794 113.479 121.738 115.232 121.548 116.473C121.358 117.714 121.022 118.593 120.539 119.11C120.089 119.592 119.465 119.848 118.665 119.876ZM107.426 114.665C108.526 114.626 109.636 114.437 110.759 114.098C111.88 113.725 112.812 113.209 113.556 112.549C114.3 111.89 114.656 111.093 114.624 110.161C114.596 109.361 114.24 108.723 113.556 108.247C112.905 107.736 112.041 107.366 110.966 107.136C109.924 106.906 108.803 106.812 107.604 106.854C105.572 106.925 104.035 107.328 102.993 108.065C101.985 108.801 101.501 109.752 101.542 110.918C101.586 112.184 102.104 113.149 103.094 113.815C104.117 114.447 105.561 114.73 107.426 114.665ZM148.828 95.4079C149.114 94.0305 149.654 92.7775 150.448 91.6491C151.276 90.5195 152.278 89.6173 153.456 88.9425C154.665 88.2332 156.002 87.853 157.468 87.8018C159.2 87.7413 160.747 88.1042 162.109 88.8905C163.471 89.6768 164.568 91.006 165.4 92.8781C166.266 94.749 166.754 97.2668 166.865 100.432C166.922 102.064 166.913 103.715 166.838 105.386C166.762 107.056 166.65 108.611 166.5 110.05C166.35 111.49 166.176 112.696 165.976 113.671C165.69 115.015 165.209 116.049 164.534 116.773C163.892 117.496 163.054 117.875 162.022 117.911C161.156 117.941 160.459 117.582 159.933 116.833C159.406 116.085 159.118 114.994 159.068 113.562C159.045 112.895 159.098 112.043 159.229 111.004C159.358 109.933 159.501 108.777 159.658 107.537C159.814 106.264 159.952 104.976 160.074 103.671C160.195 102.365 160.235 101.13 160.194 99.964C160.134 98.2318 159.737 96.9115 159.005 96.0031C158.272 95.0615 157.272 94.6128 156.006 94.657C154.607 94.7058 153.467 95.4794 152.585 96.9778C151.736 98.4416 151.276 100.559 151.206 103.33C151.159 105.8 151.119 108.002 151.087 109.938C151.053 111.84 150.858 113.415 150.501 114.661C150.265 115.537 149.905 116.2 149.42 116.65C148.969 117.1 148.343 117.338 147.544 117.366C146.644 117.398 145.917 117.089 145.36 116.442C144.837 115.793 144.518 114.754 144.401 113.323C144.292 112.126 144.226 110.711 144.203 109.078C144.179 107.444 144.139 105.828 144.083 104.229C144.06 102.595 143.996 101.247 143.892 100.183C143.684 98.0557 143.246 96.5034 142.579 95.5261C141.944 94.5477 141.011 94.08 139.778 94.123C138.346 94.173 137.219 94.8794 136.4 96.2422C135.614 97.6038 135.162 99.4707 135.045 101.843C135.012 102.811 135.02 104.012 135.07 105.444C135.152 106.842 135.235 108.24 135.317 109.638C135.399 111.036 135.423 112.203 135.389 113.138C135.425 115.138 135.159 116.581 134.59 117.468C134.053 118.354 133.269 118.815 132.236 118.851C131.004 118.894 130.09 118.526 129.496 117.746C128.935 116.965 128.541 115.695 128.312 113.935C128.124 112.374 127.97 110.829 127.85 109.299C127.729 107.735 127.642 106.187 127.588 104.655C127.533 103.089 127.507 101.389 127.51 99.5545C127.546 97.7188 127.619 95.9818 127.728 94.3437C127.87 92.671 128.171 91.2597 128.631 90.1096C129.091 88.9595 129.904 88.3641 131.07 88.3234C132.036 88.2896 132.736 88.7488 133.17 89.7009C133.602 90.6197 133.852 92.0619 133.921 94.0274C133.944 94.6936 133.916 95.3117 133.836 95.8815L133.651 94.8873C134.242 92.6987 135.249 90.9792 136.673 89.7287C138.095 88.4449 139.706 87.7716 141.505 87.7088C143.87 87.6262 145.746 88.3279 147.132 89.8137C148.517 91.2663 149.323 93.3228 149.549 95.9831L148.828 95.4079Z" fill="#714204"/>
<path d="M80.2042 128.399C83.169 128.296 85.3162 128.654 86.6456 129.475C87.9751 130.296 88.6637 131.389 88.7114 132.755C88.7393 133.554 88.4794 134.231 87.9317 134.783C87.4161 135.302 86.6586 135.578 85.6593 135.613C84.6265 135.649 83.5386 135.537 82.3955 135.277C81.2857 135.016 79.9979 134.91 78.5322 134.962C76.8332 135.021 75.5789 135.398 74.7694 136.094C73.9598 136.789 73.5731 137.653 73.6091 138.686C73.6429 139.652 74.0361 140.405 74.7887 140.946C75.5735 141.452 77.0366 141.801 79.178 141.993C81.5525 142.177 83.5164 142.542 85.0698 143.088C86.6553 143.6 87.8515 144.425 88.6584 145.565C89.4641 146.671 89.9019 148.223 89.9717 150.222C90.0822 153.386 89.0482 155.774 86.8698 157.384C84.6913 158.995 81.6366 159.868 77.7057 160.006C75.2072 160.093 73.2181 159.962 71.7384 159.614C70.2586 159.265 69.1728 158.736 68.481 158.026C67.8225 157.316 67.4757 156.461 67.4408 155.461C67.4106 154.595 67.6705 153.919 68.2205 153.433C68.8027 152.912 69.4936 152.638 70.2931 152.61C71.0593 152.583 71.8789 152.655 72.752 152.824C73.624 152.961 74.5465 153.112 75.5196 153.278C76.4926 153.444 77.4955 153.509 78.5282 153.473C81.8595 153.357 83.4891 152.266 83.417 150.2C83.3925 149.501 83.2062 148.94 82.8579 148.519C82.5097 148.097 81.8978 147.769 81.0224 147.532C80.1458 147.263 78.8718 147.074 77.2003 146.965C75.1945 146.835 73.4506 146.563 71.9686 146.147C70.4853 145.699 69.3248 144.939 68.4869 143.868C67.6478 142.763 67.1939 141.228 67.1253 139.262C67.0171 136.164 68.0958 133.625 70.3614 131.645C72.6259 129.631 75.9068 128.549 80.2042 128.399ZM98.4059 120.709C99.7384 120.663 100.701 120.996 101.293 121.709C101.918 122.421 102.247 123.26 102.281 124.226C102.323 125.425 101.989 126.371 101.279 127.063C100.602 127.72 99.6135 128.072 98.3143 128.117C97.0484 128.161 96.0868 127.845 95.4294 127.167C94.7709 126.456 94.4247 125.618 94.391 124.652C94.3468 123.386 94.6967 122.423 95.4408 121.763C96.1849 121.104 97.1733 120.752 98.4059 120.709ZM99.0948 131.842C100.161 131.805 101.029 132.775 101.698 134.753C102.401 136.73 102.828 139.9 102.981 144.264C103.168 149.627 102.92 153.505 102.236 155.897C101.553 158.289 100.428 159.512 98.8623 159.567C97.663 159.609 96.7499 158.774 96.1231 157.061C95.4952 155.315 95.105 152.26 94.9526 147.896C94.7653 142.533 95.0593 138.537 95.8347 135.908C96.6423 133.245 97.729 131.89 99.0948 131.842ZM123.601 158.603C119.904 158.732 116.936 158.285 114.699 157.263C112.462 156.24 110.825 154.713 109.786 152.682C108.748 150.65 108.179 148.202 108.079 145.337C107.952 141.706 108.511 138.601 109.755 136.023C111.031 133.41 112.828 131.379 115.146 129.931C117.497 128.481 120.188 127.703 123.219 127.598C126.784 127.473 129.428 128.215 131.152 129.822C132.874 131.396 133.782 133.516 133.875 136.181C133.95 138.313 133.448 140.182 132.37 141.787C131.324 143.358 129.833 144.594 127.897 145.495C125.96 146.397 123.71 146.892 121.144 146.982C119.712 147.032 118.323 146.897 116.978 146.577C115.632 146.257 114.416 145.799 113.328 145.203L114.45 142.963C114.378 143.766 114.356 144.567 114.384 145.367C114.465 147.699 115.257 149.355 116.759 150.337C118.26 151.285 120.359 151.712 123.057 151.618C125.156 151.545 126.832 151.303 128.085 150.892C129.338 150.481 130.392 150.094 131.247 149.731C132.1 149.334 132.943 149.121 133.776 149.092C134.242 149.076 134.663 149.195 135.039 149.448C135.447 149.668 135.776 150.006 136.025 150.465C136.308 150.922 136.461 151.483 136.484 152.15C136.519 153.149 136.053 154.132 135.086 155.1C134.118 156.034 132.662 156.836 130.717 157.504C128.805 158.138 126.433 158.504 123.601 158.603ZM120.133 142.364C122.498 142.282 124.379 141.716 125.777 140.666C127.174 139.617 127.848 138.359 127.796 136.893C127.756 135.727 127.323 134.792 126.498 134.087C125.705 133.348 124.475 133.007 122.81 133.065C121.244 133.12 119.839 133.469 118.594 134.113C117.381 134.722 116.441 135.506 115.774 136.463C115.107 137.42 114.793 138.448 114.831 139.548C114.865 140.514 115.341 141.247 116.259 141.749C117.209 142.216 118.5 142.421 120.133 142.364Z" fill="#714204"/>
</svg>
